<?xml version="1.0" encoding="UTF-8"?> <svg xmlns="http://www.w3.org/2000/svg" width="114" height="113" viewBox="0 0 114 113" fill="none"> <path d="M5.71729 37.2475C12.4632 21.3227 32.3047 26.9259 41.3822 31.7181C44.3682 3.29669 59.5833 0.43063 66.8177 2.55027C85.6178 4.87264 80.2727 24.069 75.2501 33.3769C93.1655 21.7651 102.16 27.4328 104.418 31.7181C112.712 39.1275 98.6581 52.3153 90.5943 57.983C115.477 69.1525 114.048 83.9253 110.224 89.9155C98.7226 108.716 70.504 93.8783 57.8323 84.1096C39.9169 116.623 17.6515 112.955 8.75823 107.057C-8.05129 93.7862 10.4172 71.484 21.7527 61.9918C6.04906 58.8953 4.51925 44.2054 5.71729 37.2475Z" fill="#FE558E" stroke="black" stroke-width="3"></path> <circle cx="55.3586" cy="56.4651" r="14.5354" fill="#FFA036" stroke="black" stroke-width="3"></circle> </svg> 