<?xml version="1.0" encoding="UTF-8"?> <svg xmlns="http://www.w3.org/2000/svg" width="240" height="237" viewBox="0 0 240 237" fill="none"> <path d="M9.94788 77.3621C24.3712 43.3135 66.794 55.2936 86.2024 65.5397C92.5866 4.77243 125.118 -1.35544 140.585 3.17653C180.782 8.14194 169.353 49.1854 158.615 69.0864C196.919 44.2593 216.15 56.3773 220.978 65.5397C238.711 81.3817 208.663 109.578 191.422 121.696C244.623 145.577 241.568 177.163 233.391 189.971C208.801 230.167 148.467 198.443 121.374 177.557C83.0694 247.073 35.4642 239.231 16.4496 226.62C-19.4905 198.246 19.9967 150.562 44.2329 130.267C10.6572 123.647 7.38635 92.2386 9.94788 77.3621Z" fill="#FBF59E" stroke="black" stroke-width="3"></path> <circle cx="116.085" cy="118.451" r="32.785" fill="#F8B05D" stroke="black" stroke-width="3"></circle> </svg> 