<?xml version="1.0" encoding="UTF-8"?> <svg xmlns="http://www.w3.org/2000/svg" width="210" height="207" viewBox="0 0 210 207" fill="none"> <path d="M8.93767 67.7832C21.5277 38.0624 58.5584 48.5197 75.4999 57.4635C81.0726 4.42004 109.469 -0.928949 122.971 3.02699C158.058 7.36128 148.082 43.1879 138.708 60.5594C172.144 38.888 188.931 49.4657 193.145 57.4635C208.624 71.2919 182.395 95.9045 167.345 106.482C213.784 127.328 211.118 154.899 203.98 166.079C182.515 201.166 129.85 173.474 106.201 155.243C72.7651 215.923 31.2107 209.078 14.613 198.07C-16.7589 173.302 17.7093 131.68 38.8649 113.964C9.55685 108.185 6.70173 80.7689 8.93767 67.7832Z" fill="#5DBAFB" stroke="black" stroke-width="3"></path> <circle cx="101.584" cy="103.649" r="28.4272" fill="#FEA6A4" stroke="black" stroke-width="3"></circle> </svg> 